{"title":"Above_and_Beyond_-_Trance_Around_the_World 339 (di.fm) (incl_Cos","uid":5851975,"size":230281457,"categoryP":"audio","categoryS":"music","magnet":"?xt=urn:btih:52c95e4761f0d7174284b7a6f47eee901efc5a6b&amp;dn=Above_and_Beyond_-_Trance_Around_the_World+339+%28di.fm%29+%28incl_Cos&amp;tr=udp%3A%2F%2Ftracker.openbittorrent.com%3A80&amp;tr=udp%3A%2F%2Fopen.demonii.com%3A1337&amp;tr=udp%3A%2F%2Ftracker.coppersurfer.tk%3A6969&amp;tr=udp%3A%2F%2Fexodus.desync.com%3A6969","seeders":0,"leechers":1,"uploader":"ByggFalken","files":1,"time":1285422967,"description":"PERFORMER &quot;Above &amp; Beyond&quot;\nTITLE &quot;Trance Around the World 339 (2010-09-24) (including Cosmic Gate Guestmix) [PS]&quot;\nFILE &quot;01-above_and_beyond_-_trance_around_the_world_339_incl_cosmic_gate_guestmix-(di.fm)-24-09-2010-ps.mp3&quot; MP3\n  TRACK 01 AUDIO\n    PERFORMER &quot;Trance Around the World&quot;\n    TITLE &quot;Intro&quot;\n    INDEX 01 00:00:00\n  TRACK 02 AUDIO\n    PERFORMER &quot;Angel Ace&quot;\n    TITLE &quot;Taking Off Again (Colonial One Remix)&quot;\n    INDEX 01 00:31:74\n  TRACK 03 AUDIO\n    PERFORMER &quot;7 Skies&quot;\n    TITLE &quot;Sushi (Ben Gold Remix)&quot;\n    INDEX 01 05:31:67\n  TRACK 04 AUDIO\n    PERFORMER &quot;Breakfast feat. Jeaninne Hebb&quot;\n    TITLE &quot;Every Night (Vocal Dub)&quot;\n    INDEX 01 10:03:45\n  TRACK 05 AUDIO\n    PERFORMER &quot;Parker &amp; Hanson&quot;\n    TITLE &quot;Alquimia [Record of the Week]&quot;\n    INDEX 01 15:42:36\n  TRACK 06 AUDIO\n    PERFORMER &quot;Funabashi&quot;\n    TITLE &quot;Daylight (Estiva 2010 Remix)&quot;\n    INDEX 01 22:34:20\n  TRACK 07 AUDIO\n    PERFORMER &quot;Niko Pavlidis&quot;\n    TITLE &quot;Long Roads&quot;\n    INDEX 01 27:50:09\n  TRACK 08 AUDIO\n    PERFORMER &quot;Ferry Corsten pres. Pulse&quot;\n    TITLE &quot;Festival&quot;\n    INDEX 01 33:16:69\n  TRACK 09 AUDIO\n    PERFORMER &quot;Armin van Buuren feat. Winter Kills&quot;\n    TITLE &quot;Take A Moment&quot;\n    INDEX 01 39:19:69\n  TRACK 10 AUDIO\n    PERFORMER &quot;Bjork&quot;\n    TITLE &quot;Hyperballad (Nick Galea Remix)&quot;\n    INDEX 01 44:10:30\n  TRACK 11 AUDIO\n    PERFORMER &quot;Lange&quot;\n    TITLE &quot;Harmonic Motion (Extended Mix)&quot;\n    INDEX 01 49:51:49\n  TRACK 12 AUDIO\n    PERFORMER &quot;2nd Phase&quot;\n    TITLE &quot;I Can't Remember&quot;\n    INDEX 01 55:04:34\n  TRACK 13 AUDIO\n    PERFORMER &quot;Aruna &amp; Mark Eteson&quot;\n    TITLE &quot;Let Go [Web Vote Winner]&quot;\n    INDEX 01 59:52:37\n  TRACK 14 AUDIO\n    PERFORMER &quot;MoodFreak&quot;\n    TITLE &quot;Restrained Emotion&quot;\n    INDEX 01 65:01:45\n  TRACK 15 AUDIO\n    PERFORMER &quot;Super8 &amp; Tab feat. Jan Burton&quot;\n    TITLE &quot;Empire (Mike Shiver's Catching Sun Remix)&quot;\n    INDEX 01 68:50:07\n  TRACK 16 AUDIO\n    PERFORMER &quot;Arty&quot;\n    TITLE &quot;The Wonder (Nitrous Oxide Remix)&quot;\n    INDEX 01 74:21:68\n  TRACK 17 AUDIO\n    PERFORMER &quot;Vast Vision feat. Fisher&quot;\n    TITLE &quot;Behind Your Smile (Suncatcher Remix)&quot;\n    INDEX 01 78:36:03\n  TRACK 18 AUDIO\n    PERFORMER &quot;Dave Emanuel&quot;\n    TITLE &quot;Inner Peace (Sunny Lax Remix)&quot;\n    INDEX 01 84:23:53\n  TRACK 19 AUDIO\n    PERFORMER &quot;Trance Around the World&quot;\n    TITLE &quot;Guestmix Intro (Cosmic Gate)&quot;\n    INDEX 01 89:01:74\n  TRACK 20 AUDIO\n    PERFORMER &quot;Ashley Wallbridge feat. Elleah&quot;\n    TITLE &quot;Walk On Water&quot;\n    INDEX 01 89:32:70\n  TRACK 21 AUDIO\n    PERFORMER &quot;Cosmic Gate feat. Tiff Lacey&quot;\n    TITLE &quot;Open Your Heart (Yuri Kane Remix)&quot;\n    INDEX 01 95:03:42\n  TRACK 22 AUDIO\n    PERFORMER &quot;Alexander Popov&quot;\n    TITLE &quot;Revolution On You (Main Mix)&quot;\n    INDEX 01 101:59:05\n  TRACK 23 AUDIO\n    PERFORMER &quot;Jon O'Bir feat. Julie Harrington&quot;\n    TITLE &quot;Never Enough&quot;\n    INDEX 01 108:03:49\n  TRACK 24 AUDIO\n    PERFORMER &quot;Sneijder&quot;\n    TITLE &quot;Away From Here (Arty Remix)&quot;\n    INDEX 01 113:07:12\n  TRACK 25 AUDIO\n    PERFORMER &quot;Trance Around the World&quot;\n    TITLE &quot;Outro&quot;\n    INDEX 01 119:23:00\n","torrent":{"xt":"urn:btih:52c95e4761f0d7174284b7a6f47eee901efc5a6b","amp;dn":"Above_and_Beyond_-_Trance_Around_the_World+339+%28di.fm%29+%28incl_Cos","amp;tr":["udp%3A%2F%2Ftracker.openbittorrent.com%3A80","udp%3A%2F%2Fopen.demonii.com%3A1337","udp%3A%2F%2Ftracker.coppersurfer.tk%3A6969","udp%3A%2F%2Fexodus.desync.com%3A6969"],"infoHash":"52c95e4761f0d7174284b7a6f47eee901efc5a6b","infoHashBuffer":{"type":"Buffer","data":[82,201,94,71,97,240,215,23,66,132,183,166,244,126,238,144,30,252,90,107]},"announce":[],"urlList":[]}}